<svg width="601" height="243" viewBox="0 0 601 243" fill="none" xmlns="http://www.w3.org/2000/svg">
<path d="M480.698 65.3992V66.0992L480.598 67.0992V67.1992C480.798 66.6992 480.698 65.9992 480.698 65.3992ZM480.698 66.0992L478.798 48.0992L478.598 47.1992C436.898 71.4992 389.698 85.7992 342.098 92.5992C289.798 100.099 238.398 95.4992 186.098 90.5992C161.198 88.1992 136.298 85.5992 112.098 79.6992C101.198 76.9992 85.9984 74.3992 76.8984 67.5992C73.6984 65.1992 71.1984 61.8992 68.8984 58.3992V83.4992C68.8984 92.7992 118.798 99.3992 125.298 100.599C147.098 104.799 169.098 108.099 191.098 110.399C262.598 117.999 335.998 118.699 404.998 96.7992C429.798 88.8992 456.798 80.7992 479.498 67.9992C480.098 67.6992 480.498 67.4992 480.598 67.0992C480.665 66.8992 480.698 66.6659 480.698 66.3992V66.0992Z" fill="#FCEBDD"/>
<path d="M530.499 65.0992C505.899 55.8325 486.732 47.9992 472.999 41.5992C459.265 35.1992 449.665 29.7659 444.199 25.2992C438.732 20.8325 436.132 16.8659 436.399 13.3992C436.465 13.2659 436.432 13.1992 436.299 13.1992C436.232 13.1992 436.132 13.2325 435.999 13.2992L426.999 28.3992C424.999 32.6659 427.932 37.8659 435.799 43.9992C443.332 49.7992 457.632 57.1992 478.699 66.1992L518.499 82.0992L518.999 82.2992C520.532 82.8992 522.132 83.5326 523.799 84.1992L533.799 66.3992L530.499 65.0992Z" fill="#FCEBDD"/>
<path d="M495.698 98.7992L483.598 110.999L471.398 98.7992L483.598 86.6992L495.698 98.7992Z" fill="#FCEBDD"/>
<path d="M138.198 233.999L97.7985 129.999L97.5984 129.699H82.6984L85.9984 141.199L55.8984 233.999L15.3984 129.999L15.2985 129.699H0.398438L43.4984 242.299L43.5984 242.699H58.1984L88.5984 149.199L125.898 242.699H140.498L175.598 129.699H170.998L138.198 233.999Z" fill="#FCEBDD"/>
<path fill-rule="evenodd" clip-rule="evenodd" d="M270.598 129.899L328.298 242.599L315.698 242.799L300.998 210.999L229.898 211.299L214.598 242.699H210.098L259.398 139.599L255.498 129.699H270.498L270.598 129.899ZM299.098 206.499L261.698 145.199L232.698 206.099L299.098 206.499Z" fill="#FCEBDD"/>
<path d="M453.398 129.699H439.998C439.598 129.699 439.298 129.999 439.298 130.499V197.899C439.298 209.899 436.398 219.699 430.698 227.099C424.998 234.499 416.698 238.199 406.098 238.199H405.398C399.298 238.199 393.398 236.799 387.898 233.799C382.298 230.899 377.698 226.799 374.298 221.599C371.298 217.199 369.598 212.499 369.198 207.599C369.098 207.199 368.798 206.799 368.398 206.799C367.998 206.799 367.698 207.099 367.598 207.499C366.698 213.699 367.698 219.399 370.498 224.499C373.698 230.299 378.498 234.899 384.898 237.999C391.198 241.099 398.298 242.699 406.098 242.699C412.698 242.699 418.998 241.599 424.798 239.599C430.498 237.599 435.698 234.699 439.998 230.999C444.398 227.299 447.898 222.499 450.398 216.799C452.898 211.099 454.198 204.699 454.198 197.699V130.499C454.198 129.999 453.798 129.699 453.398 129.699Z" fill="#FCEBDD"/>
<path d="M595.698 166.399C591.098 155.099 582.398 145.699 570.698 139.099C569.632 138.499 568.565 137.933 567.498 137.399C567.365 137.399 567.265 137.433 567.198 137.499C565.065 138.899 562.932 140.066 560.798 140.999C576.098 149.099 586.798 163.399 588.798 178.799C591.698 200.399 578.798 223.099 557.998 232.699C550.198 236.399 541.398 238.199 531.998 238.199H519.698V134.099H526.998C525.532 132.699 524.132 131.233 522.798 129.699H504.898V242.699H534.698C548.098 242.699 560.698 239.299 572.098 232.699C580.698 227.699 592.098 219.099 597.698 206.899C602.998 195.199 600.398 177.699 595.698 166.399Z" fill="#FCEBDD"/>
<path d="M533.297 134.098C534.997 135.398 536.797 136.498 538.697 137.398C543.997 139.898 549.797 140.198 555.697 138.598C558.163 137.865 560.63 136.798 563.097 135.398C563.763 134.998 564.397 134.598 564.997 134.198C569.797 130.998 574.397 126.898 579.397 121.098C579.997 120.432 580.63 119.765 581.297 119.098C582.797 117.498 584.397 115.798 585.297 113.998C586.897 111.098 588.397 107.998 589.797 104.998L590.797 102.998C591.897 100.698 592.897 98.2984 593.597 95.8984L590.297 94.6984C573.197 88.5984 555.597 82.2984 543.697 68.3984C538.797 87.7984 554.497 96.7984 571.097 106.398C573.197 107.598 575.397 108.798 577.497 110.098L580.097 111.698L577.597 113.398C559.797 125.898 538.697 120.798 519.997 116.298C519.263 116.098 518.53 115.932 517.797 115.798C520.697 120.498 524.097 125.498 528.197 129.698C529.797 131.298 531.497 132.765 533.297 134.098Z" fill="#FCEBDD"/>
<path d="M557.498 47.7994C560.298 47.7994 562.898 48.4993 564.898 49.0993C569.398 50.3993 573.898 52.8994 577.998 56.4994C585.898 63.2994 591.798 72.8994 594.198 82.9994C594.665 85.1327 594.965 87.2327 595.098 89.2994C595.598 86.2994 595.798 82.9994 595.798 79.4994C595.798 74.9994 595.498 70.4994 594.898 65.9994C593.498 56.7994 591.098 48.8994 587.598 42.4994C584.098 36.0994 579.998 32.1994 575.598 30.8994C569.598 29.1994 563.998 33.0993 560.398 36.5993C556.598 40.3327 553.265 44.8327 550.398 50.0993C551.698 48.8993 552.898 48.3993 554.398 48.0993C555.398 47.8993 556.432 47.7994 557.498 47.7994Z" fill="#FCEBDD"/>
<path d="M69.9001 69.6992C70.0001 70.7992 60.7001 74.0992 60.0001 74.3992C52.1001 77.1992 43.6002 78.2992 35.3002 77.0992C28.3002 76.0992 21.7001 73.5992 15.7001 69.8992C11.6001 67.2992 8.40007 64.7992 5.20007 61.1992C5.20007 61.1992 1.20012 71.1992 1.00012 72.2992C0.300124 75.8992 -0.599925 80.6992 0.700075 84.1992C3.20007 90.9992 11.1001 95.7992 17.6001 98.0992C27.0001 101.399 39.3002 101.899 48.3002 97.0992C57.8002 91.9992 65.2001 82.6992 70.5001 73.5992L69.9001 69.6992Z" fill="#FCEBDD"/>
<path d="M16.1016 43.4997C20.9016 36.1997 27.1016 28.9997 35.0016 24.8997C45.5016 19.4997 55.3015 24.3997 63.2015 32.0997C65.8015 34.6997 68.4016 37.3997 70.0016 40.6997C72.1016 44.5997 72.8016 48.9997 72.9016 53.3997C73.1016 58.8997 72.4016 64.1997 71.3016 69.4997C69.9016 75.9997 68.8016 69.1997 67.3016 66.6997C62.6016 58.4997 55.3016 47.8997 46.3016 44.0997C41.4016 41.9997 36.6016 40.7997 31.1016 40.8997C28.4016 40.8997 25.7016 41.1997 23.0016 41.6997C21.8016 41.9997 16.8016 42.3997 16.1016 43.4997Z" fill="#FCEBDD"/>
<path d="M392.6 10.4C392.6 10.6 385.7 27.6 370.6 35.7C370.5 35.7 336.8 46.6 321 46.8L367.3 29.6C372.2 27.1 376.1 23.2 378.5 18.3L335.8 19.3L352.4 0H389.1C389.7 0.2 392.1 0.800025 393.2 2.90002C394.2 4.70002 394 7.20002 392.6 10.4Z" fill="#FCEBDD"/>
</svg>
