<svg width="601" height="243" viewBox="0 0 601 243" fill="none" xmlns="http://www.w3.org/2000/svg">
<path d="M480.659 65.3992V66.0992L480.559 67.0992V67.1992C480.759 66.6992 480.659 65.9992 480.659 65.3992ZM480.659 66.0992L478.759 48.0992L478.559 47.1992C436.859 71.4992 389.659 85.7992 342.059 92.5992C289.759 100.099 238.359 95.4992 186.059 90.5992C161.159 88.1992 136.259 85.5992 112.059 79.6992C101.159 76.9992 85.9594 74.3992 76.8594 67.5992C73.6594 65.1992 71.1594 61.8992 68.8594 58.3992V83.4992C68.8594 92.7992 118.759 99.3992 125.259 100.599C147.059 104.799 169.059 108.099 191.059 110.399C262.559 117.999 335.959 118.699 404.959 96.7992C429.759 88.8992 456.759 80.7992 479.459 67.9992C480.059 67.6992 480.459 67.4992 480.559 67.0992C480.626 66.8992 480.659 66.6659 480.659 66.3992V66.0992Z" fill="#441016"/>
<path d="M530.46 65.0992C505.86 55.8325 486.693 47.9992 472.96 41.5992C459.226 35.1992 449.626 29.7659 444.16 25.2992C438.693 20.8325 436.093 16.8659 436.36 13.3992C436.426 13.2659 436.393 13.1992 436.26 13.1992C436.193 13.1992 436.093 13.2325 435.96 13.2992L426.96 28.3992C424.96 32.6659 427.893 37.8659 435.76 43.9992C443.293 49.7992 457.593 57.1992 478.66 66.1992L518.46 82.0992L518.96 82.2992C520.493 82.8992 522.093 83.5326 523.76 84.1992L533.76 66.3992L530.46 65.0992Z" fill="#441016"/>
<path d="M495.659 98.7992L483.559 110.999L471.359 98.7992L483.559 86.6992L495.659 98.7992Z" fill="#441016"/>
<path d="M138.159 233.999L97.7594 129.999L97.5593 129.699H82.6593L85.9594 141.199L55.8594 233.999L15.3594 129.999L15.2594 129.699H0.359375L43.4594 242.299L43.5593 242.699H58.1593L88.5593 149.199L125.859 242.699H140.459L175.559 129.699H170.959L138.159 233.999Z" fill="#441016"/>
<path fill-rule="evenodd" clip-rule="evenodd" d="M270.559 129.899L328.259 242.599L315.659 242.799L300.959 210.999L229.859 211.299L214.559 242.699H210.059L259.359 139.599L255.459 129.699H270.459L270.559 129.899ZM299.059 206.499L261.659 145.199L232.659 206.099L299.059 206.499Z" fill="#441016"/>
<path d="M453.359 129.699H439.959C439.559 129.699 439.259 129.999 439.259 130.499V197.899C439.259 209.899 436.359 219.699 430.659 227.099C424.959 234.499 416.659 238.199 406.059 238.199H405.359C399.259 238.199 393.359 236.799 387.859 233.799C382.259 230.899 377.659 226.799 374.259 221.599C371.259 217.199 369.559 212.499 369.159 207.599C369.059 207.199 368.759 206.799 368.359 206.799C367.959 206.799 367.659 207.099 367.559 207.499C366.659 213.699 367.659 219.399 370.459 224.499C373.659 230.299 378.459 234.899 384.859 237.999C391.159 241.099 398.259 242.699 406.059 242.699C412.659 242.699 418.959 241.599 424.759 239.599C430.459 237.599 435.659 234.699 439.959 230.999C444.359 227.299 447.859 222.499 450.359 216.799C452.859 211.099 454.159 204.699 454.159 197.699V130.499C454.159 129.999 453.759 129.699 453.359 129.699Z" fill="#441016"/>
<path d="M595.659 166.399C591.059 155.099 582.359 145.699 570.659 139.099C569.593 138.499 568.526 137.933 567.459 137.399C567.326 137.399 567.226 137.433 567.159 137.499C565.026 138.899 562.893 140.066 560.759 140.999C576.059 149.099 586.759 163.399 588.759 178.799C591.659 200.399 578.759 223.099 557.959 232.699C550.159 236.399 541.359 238.199 531.959 238.199H519.659V134.099H526.959C525.493 132.699 524.093 131.233 522.759 129.699H504.859V242.699H534.659C548.059 242.699 560.659 239.299 572.059 232.699C580.659 227.699 592.059 219.099 597.659 206.899C602.959 195.199 600.359 177.699 595.659 166.399Z" fill="#441016"/>
<path d="M533.258 134.098C534.958 135.398 536.758 136.498 538.658 137.398C543.958 139.898 549.758 140.198 555.658 138.598C558.124 137.865 560.591 136.798 563.058 135.398C563.724 134.998 564.358 134.598 564.958 134.198C569.758 130.998 574.358 126.898 579.358 121.098C579.958 120.432 580.591 119.765 581.258 119.098C582.758 117.498 584.358 115.798 585.258 113.998C586.858 111.098 588.358 107.998 589.758 104.998L590.758 102.998C591.858 100.698 592.858 98.2984 593.558 95.8984L590.258 94.6984C573.158 88.5984 555.558 82.2984 543.658 68.3984C538.758 87.7984 554.458 96.7984 571.058 106.398C573.158 107.598 575.358 108.798 577.458 110.098L580.058 111.698L577.558 113.398C559.758 125.898 538.658 120.798 519.958 116.298C519.224 116.098 518.491 115.932 517.758 115.798C520.658 120.498 524.058 125.498 528.158 129.698C529.758 131.298 531.458 132.765 533.258 134.098Z" fill="#441016"/>
<path d="M557.459 47.7994C560.259 47.7994 562.859 48.4993 564.859 49.0993C569.359 50.3993 573.859 52.8994 577.959 56.4994C585.859 63.2994 591.759 72.8994 594.159 82.9994C594.626 85.1327 594.926 87.2327 595.059 89.2994C595.559 86.2994 595.759 82.9994 595.759 79.4994C595.759 74.9994 595.459 70.4994 594.859 65.9994C593.459 56.7994 591.059 48.8994 587.559 42.4994C584.059 36.0994 579.959 32.1994 575.559 30.8994C569.559 29.1994 563.959 33.0993 560.359 36.5993C556.559 40.3327 553.226 44.8327 550.359 50.0993C551.659 48.8993 552.859 48.3993 554.359 48.0993C555.359 47.8993 556.393 47.7994 557.459 47.7994Z" fill="#441016"/>
<path d="M69.8611 69.6992C69.9611 70.7992 60.6611 74.0992 59.9611 74.3992C52.0611 77.1992 43.5611 78.2992 35.2611 77.0992C28.2611 76.0992 21.661 73.5992 15.661 69.8992C11.561 67.2992 8.36101 64.7992 5.16101 61.1992C5.16101 61.1992 1.16106 71.1992 0.961061 72.2992C0.261061 75.8992 -0.638988 80.6992 0.661012 84.1992C3.16101 90.9992 11.061 95.7992 17.561 98.0992C26.961 101.399 39.2611 101.899 48.2611 97.0992C57.7611 91.9992 65.1611 82.6992 70.4611 73.5992L69.8611 69.6992Z" fill="#441016"/>
<path d="M16.0625 43.4997C20.8625 36.1997 27.0625 28.9997 34.9625 24.8997C45.4625 19.4997 55.2625 24.3997 63.1625 32.0997C65.7625 34.6997 68.3625 37.3997 69.9625 40.6997C72.0625 44.5997 72.7625 48.9997 72.8625 53.3997C73.0625 58.8997 72.3626 64.1997 71.2626 69.4997C69.8626 75.9997 68.7626 69.1997 67.2626 66.6997C62.5626 58.4997 55.2626 47.8997 46.2626 44.0997C41.3626 41.9997 36.5625 40.7997 31.0625 40.8997C28.3625 40.8997 25.6625 41.1997 22.9625 41.6997C21.7625 41.9997 16.7625 42.3997 16.0625 43.4997Z" fill="#441016"/>
<path d="M392.561 10.4C392.561 10.6 385.661 27.6 370.561 35.7C370.461 35.7 336.761 46.6 320.961 46.8L367.261 29.6C372.161 27.1 376.061 23.2 378.461 18.3L335.761 19.3L352.361 0H389.061C389.661 0.2 392.061 0.800025 393.161 2.90002C394.161 4.70002 393.961 7.20002 392.561 10.4Z" fill="#441016"/>
</svg>
